<?xml version="1.0" encoding="UTF-8"?><svg id="Layer_2" xmlns="http://www.w3.org/2000/svg" viewBox="0 0 1024 1024"><defs><style>.cls-1{fill:#fff;}.cls-2{fill:#ff8b3d;}</style></defs><g id="Layer_1-2"><rect class="cls-1" width="1024" height="1024"/><path class="cls-2" d="m320.53,771.56c16.51,24.15,37.33,47.09,62.45,68.81,25.13,21.73,50.54,40.45,76.21,56.17,25.67,15.73,55.03,31.27,88.03,46.62l-.55-.56,2.21.56c-24.58-47.93-36.87-89.87-36.87-125.82,0-19.1,4.49-37.16,13.48-54.21,8.99-17.03,20.73-32.29,35.22-45.78,14.49-13.47,30.54-26.96,48.14-40.43,17.62-13.49,35.22-27.98,52.83-43.54,17.6-15.52,33.64-32.02,48.14-49.42,14.49-17.42,26.21-38.48,35.2-63.2,8.99-24.7,13.48-51.66,13.48-80.88,0-36.69-5.04-71.15-15.12-103.35-10.1-32.19-23.39-60.38-39.89-84.53-16.51-24.15-37.33-47.08-62.46-68.81-25.12-21.71-50.52-40.43-76.2-56.16-25.69-15.73-55.03-31.27-88.03-46.63l.54.56-1.64-.56c24.21,48.68,36.31,90.63,36.31,125.82,0,19.11-4.49,37.18-13.48,54.21-8.99,17.04-20.72,32.29-35.2,45.78-14.5,13.49-30.54,26.96-48.14,40.45-17.62,13.47-35.22,27.99-52.83,43.52-17.6,15.54-33.66,32.02-48.14,49.44-14.49,17.4-26.22,38.46-35.22,63.18-8.99,24.72-13.48,51.68-13.48,80.88,0,36.7,5.04,71.16,15.14,103.35,10.08,32.21,23.38,60.38,39.89,84.53Z"/></g></svg>